<svg width="20" height="20" viewBox="0 0 20 20" fill="none" xmlns="http://www.w3.org/2000/svg">
<g clip-path="url(#clip0_126_5315)">
<path d="M10.0001 18.3334C5.39758 18.3334 1.66675 14.6026 1.66675 10.0001C1.66675 5.39758 5.39758 1.66675 10.0001 1.66675C11.294 1.66578 12.5702 1.96656 13.7275 2.5452C14.8848 3.12384 15.8912 3.9644 16.6667 5.00008H14.4084C13.4461 4.15155 12.2594 3.59872 10.9907 3.40792C9.72196 3.21712 8.42514 3.39646 7.25582 3.92443C6.08651 4.45239 5.09437 5.30655 4.39847 6.38441C3.70257 7.46226 3.33247 8.71802 3.33258 10.001C3.33269 11.284 3.703 12.5397 4.39908 13.6174C5.09515 14.6952 6.08743 15.5492 7.25683 16.0769C8.42624 16.6047 9.72309 16.7838 10.9918 16.5928C12.2605 16.4018 13.4471 15.8488 14.4092 15.0001H16.6676C15.8919 16.0359 14.8854 16.8765 13.728 17.4552C12.5705 18.0338 11.2941 18.3345 10.0001 18.3334ZM15.8334 13.3334V10.8334H9.16675V9.16675H15.8334V6.66675L20.0001 10.0001L15.8334 13.3334Z" fill="white" fill-opacity="0.6"/>
</g>
<defs>
<clipPath id="clip0_126_5315">
<rect width="20" height="20" fill="white"/>
</clipPath>
</defs>
</svg>
